<svg class="_bai_9565_trefoil_logo_1rxqr_30" xmlns="http://www.w3.org/2000/svg" width="47" height="32" fill="none" viewBox="0 -0.8 47 34.5"><path fill="#000" d="M25.982 27.903H20.15C21.115 29.631 22.034 31 23.09 32a18.289 18.289 0 0 0 2.892-4.097ZM35.806 27.903h-9.273c-.275 1.458-.275 2.824-.275 3.824 2.704-.181 6.29-1.412 9.548-3.824ZM39.98 24.537H6.156a9.762 9.762 0 0 0 1.742 1.639h30.2a5.97 5.97 0 0 0 1.882-1.639ZM46.177 8.967c-4.223.273-10.281 3.096-14.226 7.693a16.01 16.01 0 0 0-1.884 2.504h13.586c1.834-3.643 2.797-7.24 2.524-10.197ZM28.962 19.164c.093-1.047.182-2.053.182-3.232 0-6.37-2.89-12.97-6.058-15.932-3.211 2.958-6.058 9.559-6.058 15.932 0 1.182 0 2.185.183 3.232h11.75ZM19.831 31.727a22.55 22.55 0 0 0-.142-3.824h-9.363c3.308 2.412 6.885 3.64 9.502 3.824h.003ZM16.159 19.164c-.505-.866-1.195-1.685-1.881-2.504C10.329 12.066 4.224 9.24.047 8.967c-.276 2.958.647 6.554 2.475 10.197H16.16ZM42.737 20.895H3.445c.276.592.92 1.408 1.194 1.773h36.854a7.706 7.706 0 0 0 1.24-1.773h.004Z"/></svg>